<?xml version="1.0" encoding="utf-8"?>
<!-- Generator: Adobe Illustrator 19.2.1, SVG Export Plug-In . SVG Version: 6.00 Build 0)  -->
<svg version="1.1" id="Layer_1" xmlns="http://www.w3.org/2000/svg" xmlns:xlink="http://www.w3.org/1999/xlink" x="0px" y="0px"
	 viewBox="0 0 108.008 150.018" style="enable-background:new 0 0 108.008 150.018;" xml:space="preserve">
<style type="text/css">
	.st0{fill:#B3C471;}
	.st1{fill:#CAD681;}
	.st2{fill:#585948;}
	.st3{fill:#7D1F4D;}
	.st4{fill:#FFFFFF;}
	.st5{fill:#5CD7FF;}
	.st6{fill:#7BF0D3;}
	.st7{fill:#4579B3;}
	.st8{fill:#E75C54;}
	.st9{fill:#FFE75B;}
	.st10{fill:#C55049;}
	.st11{fill:#E3B347;}
	.st12{fill:#A54242;}
	.st13{fill:#F7CC46;}
	.st14{fill:#E5B72D;}
	.st15{fill:#644E35;}
	.st16{opacity:0.2;}
	.st17{fill:#E5A13F;}
	.st18{fill:#A0A1A4;}
	.st19{fill:#6A5C4F;}
	.st20{fill:#D8F0F3;}
	.st21{fill:#64574B;}
	.st22{fill:#B6D7E0;}
	.st23{fill:#564B40;}
	.st24{fill:#99BCC8;}
	.st25{fill:#49494B;}
	.st26{fill:#EAFFFF;}
	.st27{fill:#756557;}
	.st28{fill:#383A3B;}
	.st29{fill:#2EB67F;}
	.st30{fill:#6D6D70;}
	.st31{fill:#59595B;}
	.st32{fill:#51DEFF;}
	.st33{fill:#40E0D6;}
	.st34{fill:#8FD7FF;}
	.st35{fill:#40CFE9;}
	.st36{fill:#3ED1BC;}
	.st37{fill:#8EB9FF;}
	.st38{fill:#425DB4;}
</style>
<g>
	<g>
		<g>
			<ellipse class="st29" cx="53.883" cy="146.003" rx="33.101" ry="4"/>
		</g>
	</g>
	<g id="XMLID_4_">
		<g>
			<g>
				<path class="st30" d="M80.6,62.263c1.54-0.79,3.38,0.3,3.38,2v12.03c9.13,5.41,6.96,19.22,6.96,19.22
					c-1.17,10.14-8.28,18.47-18.48,18.47h-9.4c4.1,0.84,7.89,4.67,7.89,9.02v14.56c0,2.18,0.99,4.23,2.68,5.59l1.09,0.86
					c0.41,0.33,0.17,0.99-0.35,0.99h-3.29c-2.83,0-5.13-2.3-5.13-5.13v-14.87c0-5.81-5-5.96-5-5.56v20.84
					c0,1.74,0.69,3.41,1.92,4.64l0.98,0.98c0.41,0.41,0.12,1.1-0.46,1.1H61.7c-3.17,0-5.75-2.57-5.75-5.75v-20.27
					c0-0.54-0.22-1.04-0.58-1.4s-0.86-0.58-1.4-0.58c-1.1,0-1.99,0.89-1.99,1.98v20.27c0,3.18-2.57,5.75-5.75,5.75h-1.69
					c-0.57,0-0.86-0.69-0.46-1.1l0.98-0.98c1.23-1.23,1.92-2.9,1.92-4.64v-20.84c0-0.4-5-0.25-5,5.56v14.87
					c0,2.83-2.29,5.13-5.13,5.13h-3.28c-0.53,0-0.76-0.66-0.35-0.99l1.08-0.86c1.7-1.36,2.68-3.41,2.68-5.59v-9.12v-5.44
					c0-0.92,0.17-1.82,0.48-2.67c1.14-3.17,4.18-5.69,7.42-6.35H33.51c-10.21,0-15.89-8.58-16.48-18.47c0,0-2.05-13.81,6.95-19.22
					v-12.03c0-1.7,1.85-2.79,3.39-2l12.82,6.28c4.27-1.01,8.92-1.56,13.79-1.56c4.91,0,9.6,0.56,13.89,1.58L80.6,62.263z"/>
			</g>
			<g>
				<path class="st30" d="M37.46,120.333c-0.31,0.85-0.48,1.75-0.48,2.67v5.44h-0.05c-2.21,0.87-7.7,2.62-12-0.44
					c-4.04-2.86-3.85-5.58-6-9c-0.91-1.43-3.24-4.26-5.25-4.89c-0.47-0.14-0.75-0.61-0.75-1.09c0-0.58,0.45-1.06,1.04-1.09
					c1.75-0.07,5.12,0.19,7.96,4.07c3.53,4.83,8.29,7.74,15.41,4.29L37.46,120.333z"/>
			</g>
		</g>
		<path class="st31" d="M107.192,105.226c-0.081-0.021-7.937-2.047-16.794-3.277c0.184-0.479,0.346-0.972,0.501-1.47
			c8.461-0.144,15.916,0.514,15.991,0.521c0.031,0.003,0.061,0.004,0.091,0.004c0.512,0,0.948-0.391,0.995-0.91
			c0.049-0.551-0.356-1.036-0.906-1.086c-0.075-0.007-7.296-0.639-15.633-0.536c0.205-0.911,0.381-1.84,0.492-2.803
			c0.091-0.581,2.093-14.063-6.948-19.931V64.263c0-1.136-0.584-2.172-1.562-2.77c-1.003-0.612-2.227-0.657-3.261-0.127
			l-12.409,6.141c-4.381-1.012-9.011-1.524-13.768-1.524c-4.726,0-9.323,0.506-13.67,1.505l-12.484-6.115
			c-1.048-0.537-2.275-0.492-3.281,0.122c-0.979,0.599-1.564,1.633-1.564,2.768v11.478c-8.91,5.866-7.025,19.336-6.948,19.832
			c0.058,0.968,0.168,1.935,0.328,2.895c-8.261-0.091-15.396,0.534-15.469,0.54c-0.55,0.049-0.956,0.535-0.907,1.085
			c0.047,0.52,0.482,0.911,0.995,0.911c0.029,0,0.06-0.001,0.09-0.004c0.074-0.007,7.358-0.652,15.705-0.528
			c0.126,0.513,0.267,1.022,0.424,1.525c-8.694,1.232-16.343,3.209-16.42,3.229c-0.534,0.14-0.854,0.686-0.716,1.22
			c0.117,0.45,0.522,0.748,0.967,0.748c0.084,0,0.169-0.011,0.253-0.032c0.079-0.02,7.858-2.033,16.609-3.243
			c2.548,6.232,7.682,11.065,15.619,11.065h6.817c-1.572,1.17-2.845,2.734-3.594,4.485c-5.589,2.642-10.042,1.354-13.995-4.057
			c-2.279-3.113-5.248-4.614-8.818-4.479c-1.115,0.058-1.988,0.975-1.988,2.089c0,0.949,0.602,1.791,1.451,2.045
			c1.583,0.496,3.744,2.962,4.702,4.468c0.665,1.058,1.101,2.062,1.521,3.035c0.928,2.142,1.805,4.165,4.745,6.247
			c2.004,1.426,4.235,1.913,6.352,1.913c1.949,0,3.797-0.414,5.278-0.888v7.72c0,1.885-0.84,3.638-2.304,4.809l-1.085,0.863
			c-0.521,0.421-0.715,1.1-0.492,1.73c0.223,0.631,0.8,1.038,1.471,1.038h3.28c3.38,0,6.13-2.75,6.13-6.13v-14.87
			c0-1.749,0.494-3.052,1.469-3.873c0.541-0.455,1.111-0.664,1.531-0.756v19.909c0,1.465-0.593,2.898-1.627,3.933l-0.989,0.989
			c-0.464,0.476-0.597,1.179-0.339,1.791c0.258,0.611,0.853,1.007,1.515,1.007h1.69c3.722,0,6.75-3.028,6.75-6.75v-20.27
			c0-0.541,0.443-0.98,0.989-0.98c0.258,0,0.511,0.104,0.693,0.287s0.287,0.436,0.287,0.693v20.27c0,3.722,3.028,6.75,6.75,6.75
			h1.69c0.671,0,1.27-0.398,1.525-1.017c0.255-0.614,0.114-1.317-0.358-1.79l-0.98-0.98c-1.034-1.034-1.627-2.468-1.627-3.933
			v-19.909c0.42,0.092,0.99,0.301,1.531,0.756c0.975,0.821,1.469,2.124,1.469,3.873v14.87c0,3.38,2.75,6.13,6.13,6.13h3.29
			c0.669,0,1.245-0.408,1.468-1.041c0.223-0.631,0.029-1.31-0.499-1.734l-1.082-0.854c-1.466-1.18-2.307-2.934-2.307-4.812v-14.56
			c0-3.342-1.864-6.192-4.342-8.02h4.852c7.474,0,13.775-4.324,17.107-11.132c8.961,1.203,17.04,3.288,17.121,3.31
			c0.085,0.022,0.169,0.032,0.253,0.032c0.444,0,0.85-0.298,0.967-0.748C108.046,105.91,107.726,105.365,107.192,105.226z
			 M25.508,127.187c-2.486-1.76-3.185-3.371-4.068-5.411c-0.451-1.041-0.917-2.118-1.666-3.31c-0.772-1.213-3.318-4.53-5.799-5.307
			c-0.011-0.009-0.045-0.061-0.045-0.137c0-0.042,0.028-0.088,0.079-0.091c2.837-0.117,5.251,1.119,7.113,3.661
			c4.196,5.74,9.095,7.484,14.935,5.324c-0.046,0.361-0.078,0.723-0.078,1.086v4.728C33.327,128.679,28.924,129.617,25.508,127.187z
			 M89.947,95.399c-1.194,10.354-8.386,17.585-17.487,17.585H63.06c-0.514,0-0.943,0.389-0.995,0.899s0.292,0.978,0.794,1.08
			c3.41,0.698,7.091,3.972,7.091,8.04v14.56c0,2.486,1.112,4.808,3.061,6.376l0.082,0.064h-2.013c-2.277,0-4.13-1.853-4.13-4.13
			v-14.87c0-5.49-3.982-6.693-5.517-6.693c-1.412,0-1.483,0.944-1.483,1.134v20.84c0,1.991,0.807,3.94,2.213,5.347l0.373,0.373H61.7
			c-2.619,0-4.75-2.131-4.75-4.75v-20.27c0-0.784-0.318-1.553-0.873-2.107s-1.323-0.873-2.107-0.873
			c-1.648,0-2.989,1.337-2.989,2.98v20.27c0,2.619-2.131,4.75-4.75,4.75h-0.836l0.373-0.373c1.406-1.406,2.213-3.355,2.213-5.347
			v-20.84c0-0.189-0.071-1.134-1.483-1.134c-1.534,0-5.517,1.203-5.517,6.693v14.87c0,2.277-1.853,4.13-4.13,4.13h-2.013
			l0.087-0.068c1.941-1.555,3.056-3.877,3.056-6.372v-14.56c0-0.781,0.141-1.564,0.421-2.331c0.994-2.764,3.74-5.11,6.678-5.709
			c0.503-0.102,0.848-0.568,0.796-1.08c-0.052-0.511-0.481-0.899-0.995-0.899h-11.37c-6.659,0-14.71-4.591-15.49-17.617
			c-0.02-0.132-1.855-13.208,6.477-18.216c0.301-0.182,0.484-0.507,0.484-0.857v-12.03c0-0.438,0.222-0.825,0.606-1.061
			c0.406-0.247,0.902-0.267,1.344-0.041l12.82,6.28c0.208,0.102,0.445,0.129,0.67,0.075c4.299-1.018,8.861-1.533,13.56-1.533
			c4.729,0,9.324,0.522,13.658,1.553c0.226,0.054,0.465,0.027,0.675-0.076l12.743-6.307c0.422-0.215,0.914-0.2,1.318,0.047
			c0.385,0.235,0.605,0.623,0.605,1.063v12.03c0,0.354,0.187,0.681,0.49,0.86C91.901,82.15,89.972,95.227,89.947,95.399z"/>
	</g>
</g>
</svg>
